<svg width="170" height="38" viewBox="0 0 170 38" fill="none" xmlns="http://www.w3.org/2000/svg">
<path d="M73.9104 19.4367H73.1188V24.9513C73.1188 26.0587 72.2594 26.9627 71.219 26.9627H70.8798C69.8168 26.9627 68.98 26.0587 68.98 24.9513V9.74094C68.98 7.43566 67.2385 5.58239 65.1126 5.58239H64.6377C62.4891 5.58239 60.7702 7.45826 60.7702 9.74094V33.291C60.7702 34.3984 59.9108 35.3024 58.8705 35.3024H58.3051C57.2421 35.3024 56.4053 34.3984 56.4053 33.291V10.306C56.4053 9.33413 56.1339 8.43009 55.6363 7.72947C54.89 6.66723 53.7139 6.03441 52.4926 6.07961H51.8594C49.7561 6.10221 48.0372 7.97807 48.0372 10.2382V22.0584C48.0372 23.1658 47.1778 24.0698 46.1374 24.0698H45.2554C44.1924 24.0698 43.3556 23.1658 43.3556 22.0584V4.15854C43.3556 1.85326 41.6142 0 39.4882 0H39.0133C36.8647 0 35.1459 1.87586 35.1459 4.15854V24.9965C35.1459 26.1039 34.2865 27.0079 33.2461 27.0079H32.5224C31.4594 27.0079 30.6226 26.1039 30.6226 24.9965V13.4927C30.6226 11.323 29.1752 9.49233 27.2528 9.24372C25.9862 9.08551 24.7876 9.56013 23.9281 10.5772C23.2723 11.3456 22.933 12.34 22.933 13.3571V18.7587H0C0.226164 19.4819 0.474944 20.2051 0.723724 20.9283H23.996H24.7876V13.4701C24.7876 12.4078 25.4887 11.5038 26.4386 11.3908C27.0492 11.323 27.6825 11.549 28.0896 12.0462C28.4062 12.4078 28.5645 12.8824 28.5645 13.3571V24.9965C28.5645 27.3017 30.306 29.155 32.4319 29.155H33.1556C35.3042 29.155 37.023 27.2791 37.023 24.9965V4.15854C37.023 3.0511 37.8825 2.14707 38.9228 2.14707H39.3978C40.4607 2.14707 41.2975 3.0511 41.2975 4.15854V22.0584C41.2975 24.3636 43.039 26.2169 45.1649 26.2169H46.047C48.1955 26.2169 49.9144 24.341 49.9144 22.0584V10.2382C49.9144 9.15332 50.7512 8.24929 51.7915 8.22668H52.4248H52.4474C53.0128 8.22668 53.5556 8.4753 53.9175 8.94991C54.1889 9.28892 54.3472 9.78614 54.3472 10.3286V33.2684C54.3472 35.5736 56.0887 37.4269 58.2146 37.4269H58.78C60.9286 37.4269 62.6474 35.551 62.6474 33.2684V9.71834C62.6474 8.6109 63.5068 7.70687 64.5472 7.70687H65.0221C66.0851 7.70687 66.9219 8.6109 66.9219 9.71834V24.9287C66.9219 27.2339 68.6634 29.0872 70.7893 29.0872H71.1286C73.2771 29.0872 74.996 27.2113 74.996 24.9287V21.5837H97.4993C97.7707 20.8605 98.0195 20.1599 98.2456 19.4141H73.9104V19.4367Z" fill="#21ADD0"/>
<path d="M107.307 28.225V17.5H108.927V17.965C109.617 17.545 110.262 17.335 110.862 17.335C111.852 17.335 112.577 17.64 113.037 18.25C113.497 18.85 113.727 19.865 113.727 21.295C113.727 22.715 113.462 23.715 112.932 24.295C112.412 24.875 111.557 25.165 110.367 25.165C109.957 25.165 109.482 25.12 108.942 25.03V28.225H107.307ZM110.577 18.79C110.107 18.79 109.637 18.895 109.167 19.105L108.942 19.21V23.635C109.342 23.715 109.782 23.755 110.262 23.755C110.942 23.755 111.412 23.56 111.672 23.17C111.932 22.78 112.062 22.115 112.062 21.175C112.062 19.585 111.567 18.79 110.577 18.79ZM119.909 17.5H121.529V25H119.909V24.535C119.179 24.955 118.504 25.165 117.884 25.165C116.854 25.165 116.164 24.89 115.814 24.34C115.464 23.78 115.289 22.805 115.289 21.415V17.5H116.924V21.43C116.924 22.33 116.999 22.935 117.149 23.245C117.299 23.555 117.649 23.71 118.199 23.71C118.739 23.71 119.234 23.61 119.684 23.41L119.909 23.32V17.5ZM123.598 25V14.38H125.233V25H123.598ZM132.507 19.045C131.327 18.885 130.472 18.805 129.942 18.805C129.412 18.805 129.042 18.87 128.832 19C128.632 19.12 128.532 19.315 128.532 19.585C128.532 19.855 128.642 20.045 128.862 20.155C129.092 20.265 129.622 20.395 130.452 20.545C131.292 20.685 131.887 20.91 132.237 21.22C132.587 21.53 132.762 22.08 132.762 22.87C132.762 23.66 132.507 24.24 131.997 24.61C131.497 24.98 130.762 25.165 129.792 25.165C129.182 25.165 128.412 25.08 127.482 24.91L127.017 24.835L127.077 23.47C128.277 23.63 129.142 23.71 129.672 23.71C130.202 23.71 130.577 23.645 130.797 23.515C131.027 23.385 131.142 23.17 131.142 22.87C131.142 22.57 131.032 22.365 130.812 22.255C130.602 22.135 130.087 22.01 129.267 21.88C128.457 21.74 127.862 21.525 127.482 21.235C127.102 20.945 126.912 20.415 126.912 19.645C126.912 18.875 127.172 18.3 127.692 17.92C128.222 17.54 128.897 17.35 129.717 17.35C130.357 17.35 131.142 17.43 132.072 17.59L132.537 17.68L132.507 19.045ZM139.673 23.65L140.093 23.605L140.123 24.82C138.983 25.05 137.973 25.165 137.093 25.165C135.983 25.165 135.183 24.86 134.693 24.25C134.213 23.64 133.973 22.665 133.973 21.325C133.973 18.665 135.058 17.335 137.228 17.335C139.328 17.335 140.378 18.48 140.378 20.77L140.273 21.94H135.623C135.633 22.56 135.768 23.015 136.028 23.305C136.288 23.595 136.773 23.74 137.483 23.74C138.193 23.74 138.923 23.71 139.673 23.65ZM138.773 20.68C138.773 19.94 138.653 19.425 138.413 19.135C138.183 18.835 137.788 18.685 137.228 18.685C136.668 18.685 136.258 18.84 135.998 19.15C135.748 19.46 135.618 19.97 135.608 20.68H138.773ZM141.875 25V22.84H143.63V25H141.875ZM150.879 23.65L151.299 23.605L151.329 24.82C150.189 25.05 149.179 25.165 148.299 25.165C147.189 25.165 146.389 24.86 145.899 24.25C145.419 23.64 145.179 22.665 145.179 21.325C145.179 18.665 146.264 17.335 148.434 17.335C150.534 17.335 151.584 18.48 151.584 20.77L151.479 21.94H146.829C146.839 22.56 146.974 23.015 147.234 23.305C147.494 23.595 147.979 23.74 148.689 23.74C149.399 23.74 150.129 23.71 150.879 23.65ZM149.979 20.68C149.979 19.94 149.859 19.425 149.619 19.135C149.389 18.835 148.994 18.685 148.434 18.685C147.874 18.685 147.464 18.84 147.204 19.15C146.954 19.46 146.824 19.97 146.814 20.68H149.979ZM155.962 17.335C156.492 17.335 157.117 17.405 157.837 17.545L158.212 17.62L158.152 18.91C157.362 18.83 156.777 18.79 156.397 18.79C155.637 18.79 155.127 18.96 154.867 19.3C154.607 19.64 154.477 20.28 154.477 21.22C154.477 22.16 154.602 22.81 154.852 23.17C155.102 23.53 155.622 23.71 156.412 23.71L158.167 23.59L158.212 24.895C157.202 25.075 156.442 25.165 155.932 25.165C154.792 25.165 153.987 24.86 153.517 24.25C153.057 23.63 152.827 22.62 152.827 21.22C152.827 19.82 153.072 18.825 153.562 18.235C154.052 17.635 154.852 17.335 155.962 17.335ZM160.124 18.31C160.644 17.66 161.504 17.335 162.704 17.335C163.904 17.335 164.759 17.66 165.269 18.31C165.789 18.96 166.049 19.935 166.049 21.235C166.049 22.535 165.799 23.515 165.299 24.175C164.799 24.835 163.934 25.165 162.704 25.165C161.474 25.165 160.609 24.835 160.109 24.175C159.609 23.515 159.359 22.535 159.359 21.235C159.359 19.935 159.614 18.96 160.124 18.31ZM161.354 23.185C161.584 23.585 162.034 23.785 162.704 23.785C163.374 23.785 163.824 23.585 164.054 23.185C164.284 22.785 164.399 22.13 164.399 21.22C164.399 20.31 164.274 19.665 164.024 19.285C163.784 18.905 163.344 18.715 162.704 18.715C162.064 18.715 161.619 18.905 161.369 19.285C161.129 19.665 161.009 20.31 161.009 21.22C161.009 22.13 161.124 22.785 161.354 23.185Z" fill="#21ADD0"/>
</svg>
